<svg xmlns="http://www.w3.org/2000/svg" width="111" height="32" fill="none" viewBox="0 0 111 32">
    <path fill="#000" fill-opacity="0" d="M0 0h114.813v31.948H0z"/>
    <path fill="#fff" d="M44.032 15.966v8.939H41.66v-8.94h-1.274v-2.042h1.274v-.703c0-1.567.227-2.643.681-3.229.454-.585 1.26-.878 2.416-.878l2.372.22-.022 1.954a45.442 45.442 0 0 0-1.8-.044c-.47 0-.799.147-.99.44-.19.278-.285.797-.285 1.559v.68h2.9v2.043h-2.9zm11.371-2.043h2.372v10.982h-2.372v-.681c-1.069.615-2.057.922-2.965.922-1.508 0-2.519-.402-3.031-1.207-.512-.82-.769-2.248-.769-4.284v-5.732h2.394v5.754c0 1.318.11 2.204.33 2.658.22.454.732.681 1.537.681.791 0 1.516-.146 2.175-.44l.33-.131v-8.522zm5.403 10.982V9.355H63.2v15.55h-2.394zm5.555 0V9.355h2.394v15.55h-2.394zm13.045-8.72c-1.728-.234-2.98-.351-3.756-.351-.776 0-1.317.095-1.625.285-.293.176-.44.462-.44.857 0 .395.162.673.484.835.337.16 1.113.35 2.328.57 1.23.206 2.101.535 2.614.989.512.454.769 1.26.769 2.416 0 1.157-.374 2.006-1.12 2.548-.733.542-1.809.813-3.23.813-.892 0-2.02-.125-3.382-.374l-.68-.11.087-1.998c1.757.234 3.024.351 3.8.351.776 0 1.325-.095 1.647-.286.337-.19.506-.505.506-.944 0-.44-.162-.74-.484-.9-.307-.176-1.061-.36-2.262-.55-1.186-.205-2.057-.52-2.614-.944-.556-.425-.834-1.2-.834-2.328s.38-1.97 1.142-2.526c.776-.557 1.764-.835 2.965-.835.937 0 2.087.117 3.448.352l.681.131-.044 2zm8.583-.22h-3.031v4.833c0 .893.066 1.486.197 1.779.132.293.469.439 1.01.439l1.802-.066.11 1.911c-.981.19-1.728.285-2.24.285-1.245 0-2.102-.285-2.57-.856-.454-.571-.681-1.647-.681-3.229v-5.095H81.18v-2.043h1.406v-3.185h2.372v3.185h3.03v2.043zm2.556-.856c.762-.952 2.021-1.428 3.778-1.428 1.757 0 3.01.476 3.756 1.428.762.952 1.142 2.38 1.142 4.283 0 1.904-.366 3.338-1.098 4.305-.732.966-1.999 1.45-3.8 1.45-1.8 0-3.067-.484-3.8-1.45-.732-.967-1.098-2.401-1.098-4.305s.374-3.331 1.12-4.283zm1.801 7.138c.337.586.996.879 1.977.879.981 0 1.64-.293 1.977-.879.337-.585.505-1.545.505-2.877 0-1.333-.183-2.277-.549-2.833-.351-.557-.996-.835-1.933-.835s-1.588.278-1.955.835c-.351.556-.527 1.5-.527 2.833 0 1.332.169 2.291.505 2.877zm9.253 7.38V13.923h2.372v.68c1.011-.614 1.955-.922 2.834-.922 1.449 0 2.511.447 3.185 1.34.673.879 1.01 2.365 1.01 4.459 0 2.079-.388 3.543-1.164 4.393-.762.849-2.013 1.273-3.756 1.273-.6 0-1.296-.065-2.087-.197v4.678h-2.394zm4.789-13.815c-.689 0-1.377.154-2.065.461l-.33.154v6.48a9.88 9.88 0 0 0 1.933.175c.996 0 1.684-.286 2.065-.857.381-.57.571-1.545.571-2.921 0-2.328-.725-3.492-2.174-3.492z"/>
    <path fill="#000" fill-opacity="0" d="M0 0h31.948v31.948H0z"/>
    <path fill="#fff" d="M0 0h31.948v31.948H0z"/>
    <path fill="#251D2B" fill-rule="evenodd" d="M12.727 25.209a3.425 3.425 0 0 0 3.431-3.419 3.425 3.425 0 0 0-3.431-3.418 3.425 3.425 0 0 0-3.432 3.418 3.425 3.425 0 0 0 3.432 3.419z" clip-rule="evenodd"/>
    <path fill="#251D2B" d="M21.114 6.218h1.525v20.51h-1.525z"/>
</svg>
